<svg xmlns="http://www.w3.org/2000/svg" xmlns:xlink="http://www.w3.org/1999/xlink" width="423" height="404" viewBox="0 0 423 404">
  <defs>
    <linearGradient id="hero-landing-page-a" x1="50%" x2="50%" y1="0%" y2="100%">
      <stop offset="0%" stop-color="#E8C427"/>
      <stop offset="100%" stop-color="#CC9211"/>
    </linearGradient>
    <path id="hero-landing-page-b" d="M20.5590646,16.9021559 L34.5138945,16.9021559 C37.6950547,16.9021559 40.2738945,19.4809957 40.2738945,22.6621559 L40.2738945,26.5393035 C40.2738945,31.8412371 35.9758281,36.1393035 30.6738945,36.1393035 L24.3990646,36.1393035 C19.097131,36.1393035 14.7990646,31.8412371 14.7990646,26.5393035 L14.7990646,22.6621559 C14.7990646,19.4809957 17.3779044,16.9021559 20.5590646,16.9021559 Z"/>
    <filter id="hero-landing-page-c" width="115.7%" height="120.8%" x="-7.9%" y="-10.4%" filterUnits="objectBoundingBox">
      <feGaussianBlur in="SourceAlpha" result="shadowBlurInner1" stdDeviation="1.5"/>
      <feOffset dy="1" in="shadowBlurInner1" result="shadowOffsetInner1"/>
      <feComposite in="shadowOffsetInner1" in2="SourceAlpha" k2="-1" k3="1" operator="arithmetic" result="shadowInnerInner1"/>
      <feColorMatrix in="shadowInnerInner1" values="0 0 0 0 0   0 0 0 0 0   0 0 0 0 0  0 0 0 0.5 0"/>
    </filter>
    <linearGradient id="hero-landing-page-d" x1="50%" x2="50%" y1="0%" y2="100%">
      <stop offset="0%" stop-color="#BFC6D3"/>
      <stop offset="100%" stop-color="#8B94A8"/>
    </linearGradient>
    <linearGradient id="hero-landing-page-e" x1="50%" x2="50%" y1="0%" y2="100%">
      <stop offset="0%" stop-color="#8997B4"/>
      <stop offset="100%" stop-color="#515E7D"/>
    </linearGradient>
    <linearGradient id="hero-landing-page-f" x1="50%" x2="50%" y1="0%" y2="100%">
      <stop offset="0%" stop-color="#02B29B"/>
      <stop offset="100%" stop-color="#017B62"/>
    </linearGradient>
    <linearGradient id="hero-landing-page-g" x1="50%" x2="50%" y1="0%" y2="100%">
      <stop offset="0%" stop-color="#8997B4"/>
      <stop offset="100%" stop-color="#515E7D"/>
    </linearGradient>
    <rect id="hero-landing-page-h" width="8.4" height="8.4" x="3.6" y="16.5"/>
    <filter id="hero-landing-page-i" width="171.4%" height="171.4%" x="-35.7%" y="-35.7%" filterUnits="objectBoundingBox">
      <feGaussianBlur in="SourceAlpha" result="shadowBlurInner1" stdDeviation="2"/>
      <feOffset dy="2" in="shadowBlurInner1" result="shadowOffsetInner1"/>
      <feComposite in="shadowOffsetInner1" in2="SourceAlpha" k2="-1" k3="1" operator="arithmetic" result="shadowInnerInner1"/>
      <feColorMatrix in="shadowInnerInner1" values="0 0 0 0 0   0 0 0 0 0   0 0 0 0 0  0 0 0 0.5 0"/>
    </filter>
    <linearGradient id="hero-landing-page-j" x1="50%" x2="50%" y1="0%" y2="100%">
      <stop offset="0%" stop-color="#02B29B"/>
      <stop offset="100%" stop-color="#017B62"/>
    </linearGradient>
    <path id="hero-landing-page-k" d="M29.32926,23.4 L26.3710617,23.4 C23.7200949,23.4 21.5710617,25.5490332 21.5710617,28.2 L21.5710617,31.35 C21.5710617,35.7406638 25.130398,39.3 29.5210617,39.3 L34.9305282,39.3 L29.32926,23.4 Z"/>
    <filter id="hero-landing-page-l" width="122.5%" height="118.9%" x="-11.2%" y="-9.4%" filterUnits="objectBoundingBox">
      <feGaussianBlur in="SourceAlpha" result="shadowBlurInner1" stdDeviation="1"/>
      <feOffset dy="1" in="shadowBlurInner1" result="shadowOffsetInner1"/>
      <feComposite in="shadowOffsetInner1" in2="SourceAlpha" k2="-1" k3="1" operator="arithmetic" result="shadowInnerInner1"/>
      <feColorMatrix in="shadowInnerInner1" values="0 0 0 0 0   0 0 0 0 0   0 0 0 0 0  0 0 0 0.5 0"/>
    </filter>
    <linearGradient id="hero-landing-page-m" x1="50%" x2="50%" y1="0%" y2="100%">
      <stop offset="0%" stop-color="#E8C427"/>
      <stop offset="100%" stop-color="#CC9211"/>
    </linearGradient>
    <filter id="hero-landing-page-n" width="128.6%" height="128.6%" x="-14.3%" y="-14.3%" filterUnits="objectBoundingBox">
      <feOffset dy="1" in="SourceAlpha" result="shadowOffsetOuter1"/>
      <feGaussianBlur in="shadowOffsetOuter1" result="shadowBlurOuter1" stdDeviation=".5"/>
      <feColorMatrix in="shadowBlurOuter1" result="shadowMatrixOuter1" values="0 0 0 0 0   0 0 0 0 0   0 0 0 0 0  0 0 0 0.07 0"/>
      <feMerge>
        <feMergeNode in="shadowMatrixOuter1"/>
        <feMergeNode in="SourceGraphic"/>
      </feMerge>
    </filter>
    <filter id="hero-landing-page-o" width="131%" height="131%" x="-15.5%" y="-15.5%" filterUnits="objectBoundingBox">
      <feOffset dy="2" in="SourceAlpha" result="shadowOffsetOuter1"/>
      <feGaussianBlur in="shadowOffsetOuter1" result="shadowBlurOuter1" stdDeviation="1"/>
      <feColorMatrix in="shadowBlurOuter1" result="shadowMatrixOuter1" values="0 0 0 0 0   0 0 0 0 0   0 0 0 0 0  0 0 0 0.07 0"/>
      <feMerge>
        <feMergeNode in="shadowMatrixOuter1"/>
        <feMergeNode in="SourceGraphic"/>
      </feMerge>
    </filter>
    <linearGradient id="hero-landing-page-p" x1="50%" x2="50%" y1="0%" y2="100%">
      <stop offset="0%" stop-color="#E18989"/>
      <stop offset="100%" stop-color="#C05151"/>
    </linearGradient>
    <path id="hero-landing-page-q" d="M20.1590646,17.9464682 L34.1138945,17.9464682 C37.2950547,17.9464682 39.8738945,20.525308 39.8738945,23.7064682 L39.8738945,27.6312325 C39.8738945,32.933166 35.5758281,37.2312325 30.2738945,37.2312325 L23.9990646,37.2312325 C18.697131,37.2312325 14.3990646,32.933166 14.3990646,27.6312325 L14.3990646,23.7064682 C14.3990646,20.525308 16.9779044,17.9464682 20.1590646,17.9464682 Z"/>
    <filter id="hero-landing-page-r" width="115.7%" height="120.7%" x="-7.9%" y="-10.4%" filterUnits="objectBoundingBox">
      <feGaussianBlur in="SourceAlpha" result="shadowBlurInner1" stdDeviation="1.5"/>
      <feOffset dy="1" in="shadowBlurInner1" result="shadowOffsetInner1"/>
      <feComposite in="shadowOffsetInner1" in2="SourceAlpha" k2="-1" k3="1" operator="arithmetic" result="shadowInnerInner1"/>
      <feColorMatrix in="shadowInnerInner1" values="0 0 0 0 0   0 0 0 0 0   0 0 0 0 0  0 0 0 0.5 0"/>
    </filter>
    <linearGradient id="hero-landing-page-s" x1="50%" x2="50%" y1="0%" y2="100%">
      <stop offset="0%" stop-color="#BFC6D3"/>
      <stop offset="100%" stop-color="#8B94A8"/>
    </linearGradient>
    <linearGradient id="hero-landing-page-t" x1="50%" x2="50%" y1="0%" y2="100%">
      <stop offset="0%" stop-color="#8997B4"/>
      <stop offset="100%" stop-color="#515E7D"/>
    </linearGradient>
    <filter id="hero-landing-page-u" width="131.7%" height="132%" x="-14.6%" y="-14.7%" filterUnits="objectBoundingBox">
      <feOffset dy="1" in="SourceAlpha" result="shadowOffsetOuter1"/>
      <feGaussianBlur in="shadowOffsetOuter1" result="shadowBlurOuter1" stdDeviation=".5"/>
      <feColorMatrix in="shadowBlurOuter1" result="shadowMatrixOuter1" values="0 0 0 0 0   0 0 0 0 0   0 0 0 0 0  0 0 0 0.07 0"/>
      <feMerge>
        <feMergeNode in="shadowMatrixOuter1"/>
        <feMergeNode in="SourceGraphic"/>
      </feMerge>
    </filter>
    <radialGradient id="hero-landing-page-v" r="100%" fx="50%" fy="50%">
      <stop offset="0%" stop-color="#FFF"/>
      <stop offset="100%"/>
    </radialGradient>
  </defs>
  <g fill="none" fill-rule="evenodd">
    <circle cx="205.5" cy="198.5" r="193.5" fill="#56585A" fill-rule="nonzero" opacity=".109"/>
    <g transform="matrix(-1 0 0 1 90 44)">
      <rect width="80" height="79.602" fill="#101214" fill-rule="nonzero" rx="39.801"/>
      <g transform="translate(4.8 8.358)">
        <g transform="matrix(-1 0 0 1 60.4 12.112)">
          <g transform="matrix(-1 0 0 1 57.312 0)">
            <path stroke="#02A483" stroke-width="1.536" d="M44.6774903 23.0580431L45.7891615 26.2235361M45.7891615 26.2235361L48.659 24.2661408"/>
            <path stroke="#F38C8C" stroke-width="1.536" d="M3.074749,45.2678005 L4.18111256,48.434297" transform="rotate(-150 3.628 46.851)"/>
            <path stroke="#F38C8C" stroke-width="1.536" d="M0.771751269,46.3172265 L3.64201635,44.3542649" transform="rotate(-150 2.207 45.336)"/>
            <path stroke="#F38C8C" stroke-width="1.536" d="M3.21959644,45.3731343 C17.9150487,41.9389901 27.9877595,35.5266076 33.4377288,26.1359867"/>
            <path fill="url(#hero-landing-page-a)" d="M31.3963023,52.2985075 C47.6075577,45.0637854 55.7131854,36.9841834 55.7131854,28.0597015 C55.7131854,14.6729786 43.9228536,-2.48689958e-14 31.7644121,-2.48689958e-14 C19.6059705,-2.48689958e-14 7.07941916,14.6729786 7.07941916,28.0597015 C7.07941916,36.9841834 15.1850469,45.0637854 31.3963023,52.2985075 Z"/>
            <use fill="#996D0D" xlink:href="#hero-landing-page-b"/>
            <use fill="#000" filter="url(#hero-landing-page-c)" xlink:href="#hero-landing-page-b"/>
            <g fill="#FFF" transform="translate(19.244 22.872)">
              <g transform="rotate(-90 7.938 -4.11)">
                <polygon points="0 1.898 .978 1.898 .978 .949 0 .949"/>
                <polygon points=".978 .949 1.957 .949 1.957 0 .978 0"/>
                <polygon points="1.957 1.898 2.935 1.898 2.935 .949 1.957 .949"/>
              </g>
              <g transform="rotate(-90 1.916 1.912)">
                <polygon points="0 1.898 .978 1.898 .978 .949 0 .949"/>
                <polygon points=".978 .949 1.957 .949 1.957 0 .978 0"/>
                <polygon points="1.957 1.898 2.935 1.898 2.935 .949 1.957 .949"/>
              </g>
              <polygon points="4.473 6.871 5.452 6.871 5.452 5.922 4.473 5.922"/>
              <polygon points="5.452 7.82 6.43 7.82 6.43 6.871 5.452 6.871"/>
              <polygon points="6.43 7.82 7.409 7.82 7.409 6.871 6.43 6.871"/>
              <polygon points="7.409 7.82 8.387 7.82 8.387 6.871 7.409 6.871"/>
              <polygon points="8.387 6.871 9.366 6.871 9.366 5.922 8.387 5.922"/>
            </g>
            <path stroke="#E7C426" stroke-linecap="round" stroke-width="1.536" d="M17.8869228,52.2985075 C32.5823751,48.8643632 42.6550858,42.4519807 48.1050551,33.0613599"/>
            <path stroke="#F38C8C" stroke-width="1.536" d="M17.4005314,52.2543235 L18.506895,55.4208201" transform="rotate(-150 17.954 53.838)"/>
            <path stroke="#F38C8C" stroke-width="1.536" d="M15.0975337,53.3037495 L17.9677988,51.3407879" transform="rotate(-150 16.533 52.322)"/>
          </g>
          <rect width="38.598" height="26.163" x="21.503" y="33.061" fill="url(#hero-landing-page-d)" rx="2.304"/>
          <path fill="url(#hero-landing-page-e)" d="M41.1881863,50.7595357 C39.2696372,50.7595357 37.7143459,49.2092381 37.7143459,47.2968491 C37.7143459,45.3844601 39.2696372,43.8341625 41.1881863,43.8341625 C43.1067354,43.8341625 44.6620268,45.3844601 44.6620268,47.2968491 C44.6620268,49.2092381 43.1067354,50.7595357 41.1881863,50.7595357 Z M41.6064992,43.0324498 C41.5852668,42.9181688 41.5741686,42.8003432 41.5741686,42.6799337 C41.5741686,41.6174953 42.4382193,40.7562189 43.5040799,40.7562189 C43.6248773,40.7562189 43.7430825,40.7672815 43.8577316,40.7884457 C43.878964,40.9027267 43.8900622,41.0205524 43.8900622,41.1409619 C43.8900622,42.2034002 43.0260115,43.0646766 41.9601509,43.0646766 C41.8393535,43.0646766 41.7211483,43.053614 41.6064992,43.0324498 Z"/>
        </g>
        <path fill="url(#hero-landing-page-f)" d="M22.9458973,18.1492537 C22.9458973,9.70836442 29.8137071,2.86567164 38.2855798,2.86567164 C46.7574525,2.86567164 53.6252623,9.70836442 53.6252623,18.1492537 L22.9458973,18.1492537 Z" transform="rotate(9 38.286 10.507)"/>
        <path fill="#017B62" d="M10.9181988,16.1994662 L51.6637839,16.17644 C52.1907899,16.1761422 52.618254,16.6031235 52.6185518,17.1301294 C52.618552,17.1304896 52.618552,17.1308497 52.6185518,17.1312098 L52.6185518,17.1312098 C52.6182525,17.6589877 52.1904782,18.0867611 51.6627004,18.0870594 L10.9182022,18.1100849 C10.6531056,18.1102347 10.4380808,17.8954529 10.437931,17.6303563 C10.4379309,17.6301751 10.4379309,17.629994 10.437931,17.6298128 L10.4384701,16.6791939 C10.4386203,16.4143095 10.6533144,16.1996159 10.9181988,16.1994662 Z" transform="rotate(9 31.528 17.143)"/>
      </g>
    </g>
    <g transform="translate(138 344)">
      <rect width="60" height="60" fill="#101214" fill-rule="nonzero" rx="30"/>
      <g transform="translate(0 1.5)">
        <path stroke="#02A483" stroke-width="1.2" d="M4.36983782e-13 10.2408478C11.4218606 18.1923713 19.2507518 15.5681331 23.4866738 2.3681331M22.7500932 0L23.614126 2.4682659M23.614126 2.4682659L25.8446729.942003772" transform="matrix(-1 0 0 1 32.565 28.2)"/>
        <g transform="translate(.3)">
          <rect width="13.2" height="21.6" y="14.1" fill="url(#hero-landing-page-g)"/>
          <use fill="#515E7D" xlink:href="#hero-landing-page-h"/>
          <use fill="#000" filter="url(#hero-landing-page-i)" xlink:href="#hero-landing-page-h"/>
          <rect width="1" height="9.9" x="2.4" y="3.6" fill="#D8D8D8" stroke="#979797" stroke-width="1.2"/>
          <circle cx="8.4" cy="29.7" r="2.4" fill="#D8D8D8" stroke="#979797" stroke-width="1.2"/>
          <circle cx="2.4" cy="1.8" r="1.8" fill="#D8D8D8"/>
        </g>
        <path fill="url(#hero-landing-page-j)" d="M40.0410011,14.4084897 L51.0017738,45.5091971 C52.7916198,50.5878059 50.1255508,56.1557887 45.046942,57.9456347 C44.0058449,58.3125469 42.9099995,58.5 41.8061391,58.5 L37.8368918,58.5 C27.3124892,58.5 18.7807752,49.968286 18.7807752,39.4438833 C18.7807752,39.1292685 18.7885666,38.8147018 18.8041422,38.5004727 C18.9809052,34.9345041 19.3622886,31.2980081 19.9482982,27.5909852 C20.7070657,22.7911182 21.2852652,18.8649209 21.6828968,15.8123931 L21.6828653,15.812389 C22.2351977,11.5722582 25.8474849,8.4 30.1234386,8.4 L31.5527229,8.4 C35.3700743,8.4 38.7721515,10.8081852 40.0410011,14.4084897 Z" transform="matrix(-1 0 0 1 70.401 0)"/>
        <g transform="matrix(-1 0 0 1 56.502 0)">
          <use fill="#015241" xlink:href="#hero-landing-page-k"/>
          <use fill="#000" filter="url(#hero-landing-page-l)" xlink:href="#hero-landing-page-k"/>
        </g>
        <g fill="#FFF" transform="matrix(-1 0 0 1 30.078 28.8)">
          <polygon points="1.2 1.48 2.003 1.48 2.003 .74 1.2 .74"/>
          <polygon points="2.003 .74 2.806 .74 2.806 0 2.003 0"/>
          <polygon points="2.806 1.48 3.609 1.48 3.609 .74 2.806 .74"/>
          <polygon points="3.517 4.613 4.32 4.613 4.32 3.873 3.517 3.873"/>
          <polygon points="4.32 5.353 5.123 5.353 5.123 4.613 4.32 4.613"/>
          <polygon points="5.123 5.353 5.926 5.353 5.926 4.613 5.123 4.613"/>
        </g>
        <path stroke="#02A483" stroke-width="1.2" d="M4.36983782e-13 10.2408478C11.4218606 18.1923713 19.2507518 15.5681331 23.4866738 2.3681331M22.7500932 0L23.614126 2.4682659M23.614126 2.4682659L25.8446729.942003772" transform="matrix(-1 0 0 1 26.565 28.963)"/>
        <path fill="url(#hero-landing-page-m)" d="M30.5943399,14.5625437 C30.5943399,9.2606101 34.8924063,4.9625437 40.1943399,4.9625437 C45.4962735,4.9625437 49.7943399,9.2606101 49.7943399,14.5625437 L30.5943399,14.5625437 Z" transform="scale(-1 1) rotate(-7 0 666.934)"/>
        <path fill="#996D0D" d="M23.122784,13.7074004 L48.622784,13.7074004 C48.9541548,13.7074004 49.222784,13.9760296 49.222784,14.3074004 L49.222784,14.3074004 C49.222784,14.6387713 48.9541548,14.9074004 48.622784,14.9074004 L23.122784,14.9074004 C22.9570985,14.9074004 22.822784,14.7730858 22.822784,14.6074004 L22.822784,14.0074004 C22.822784,13.841715 22.9570985,13.7074004 23.122784,13.7074004 Z" transform="scale(-1 1) rotate(-7 0 603.275)"/>
      </g>
    </g>
    <g transform="translate(313 38)">
      <path fill="#FFF" d="M29.7925101,59.4814241 C46.2464591,59.4814241 59.5850202,46.1660538 59.5850202,29.7407121 C59.5850202,21.8254831 56.4875502,14.6324493 51.4366282,9.30363965 C46.0060948,3.57433336 38.3174446,-1.78701498e-12 29.7925101,-1.78701498e-12 C13.3385611,-1.78701498e-12 9.59232693e-14,13.3153703 9.59232693e-14,29.7407121 C9.59232693e-14,46.1660538 13.3385611,59.4814241 29.7925101,59.4814241 Z" opacity=".087"/>
      <g fill-rule="nonzero" transform="translate(10.536 10.294)">
        <path fill="#326DE6" d="M35.7943044,8.38142415 C35.5700221,7.66811146 35.0317446,7.08854489 34.3588977,6.73188854 L20.6776776,0.222910217 C20.318826,0.0445820433 19.9151178,0 19.5562661,0 C19.1974145,0 18.7937063,0 18.4348547,0.0891640867 L4.75363457,6.64272446 C4.08078759,6.95479876 3.58736654,7.53436533 3.4079407,8.29226006 L0.0437062673,22.9597523 C-0.0908631107,23.7176471 0.0885627267,24.4755418 0.537127302,25.0996904 L10.0018403,36.7356037 C10.5401178,37.2705882 11.3026776,37.6272446 12.0652374,37.6718266 L27.1370078,37.6718266 C27.944424,37.7609907 28.7069839,37.4043344 29.2004049,36.7356037 L38.6651178,25.0996904 C39.1136824,24.4755418 39.2931083,23.7176471 39.2033953,22.9597523 L35.7943044,8.38142415 Z"/>
        <path fill="#FFF" d="M33.6860508,22.3801858 L33.6860508,22.3801858 C33.6411944,22.3801858 33.5963379,22.3801858 33.5963379,22.3356037 C33.5963379,22.2910217 33.506625,22.2910217 33.4169121,22.2910217 C33.2374862,22.2464396 33.0580604,22.2464396 32.8786346,22.2464396 C32.7889217,22.2464396 32.6992087,22.2464396 32.6094958,22.2018576 L32.5646394,22.2018576 C32.0712183,22.1572755 31.5329408,22.0681115 31.0395197,21.9343653 C30.9049504,21.8897833 30.770381,21.7560372 30.7255245,21.622291 C30.770381,21.622291 30.7255245,21.622291 30.7255245,21.622291 L30.7255245,21.622291 L30.3666728,21.5331269 C30.5460987,20.2402477 30.4563858,18.9027864 30.187247,17.6099071 C29.8732518,16.3170279 29.3349743,15.0687307 28.6172709,13.9541796 L28.8864097,13.6866873 L28.8864097,13.6866873 L28.8864097,13.6421053 C28.8864097,13.5083591 28.9312661,13.330031 29.0209791,13.2408669 C29.4246872,12.8842105 29.8283953,12.6167183 30.2769599,12.349226 L30.2769599,12.349226 C30.3666728,12.304644 30.4563858,12.2600619 30.5460987,12.2154799 C30.7255245,12.1263158 30.8600939,12.0371517 31.0395197,11.9479876 C31.0843762,11.9034056 31.1292327,11.9034056 31.1740891,11.8588235 C31.2189456,11.8142415 31.1740891,11.8142415 31.1740891,11.7696594 L31.1740891,11.7696594 C31.5777972,11.4575851 31.6675102,10.9226006 31.353515,10.5213622 C31.2189456,10.3430341 30.9498068,10.2092879 30.7255245,10.2092879 C30.5012422,10.2092879 30.2769599,10.298452 30.0975341,10.4321981 L30.0975341,10.4321981 L30.0526776,10.4767802 C30.0078212,10.5213622 29.9629647,10.5659443 29.9181083,10.5659443 C29.7835389,10.6996904 29.6489695,10.8334365 29.5592566,10.9671827 C29.5144001,11.0563467 29.4246872,11.1009288 29.3798307,11.1455108 L29.3798307,11.1455108 C29.0658355,11.5021672 28.6621274,11.8588235 28.2584193,12.1263158 C28.1687063,12.1708978 28.0789934,12.2154799 27.9892805,12.2154799 C27.944424,12.2154799 27.8547111,12.2154799 27.8098547,12.1708978 L27.7649982,12.1708978 L27.4061465,12.393808 C27.0472949,12.0371517 26.6435867,11.6804954 26.284735,11.323839 C24.6250461,10.0309598 22.5616489,9.22848297 20.4533953,9.00557276 L20.4085389,8.64891641 L20.4085389,8.64891641 L20.4085389,8.69349845 C20.2739695,8.60433437 20.229113,8.47058824 20.1842566,8.33684211 C20.1842566,7.84643963 20.1842566,7.35603715 20.2739695,6.82105263 L20.2739695,6.77647059 C20.2739695,6.6873065 20.318826,6.59814241 20.318826,6.50897833 C20.3636824,6.33065015 20.3636824,6.15232198 20.4085389,5.97399381 L20.4085389,5.70650155 L20.4085389,5.70650155 C20.4533953,5.26068111 20.0945437,4.81486068 19.6459791,4.77027864 C19.3768403,4.72569659 19.1077016,4.85944272 18.8834193,5.08235294 C18.7039934,5.26068111 18.6142805,5.48359133 18.6142805,5.70650155 L18.6142805,5.70650155 L18.6142805,5.92941176 C18.6142805,6.10773994 18.659137,6.28606811 18.7039934,6.46439628 C18.7488499,6.55356037 18.7488499,6.64272446 18.7488499,6.73188854 L18.7488499,6.77647059 C18.8385628,7.26687307 18.8385628,7.75727554 18.8385628,8.29226006 C18.7937063,8.42600619 18.7488499,8.55975232 18.6142805,8.64891641 L18.6142805,8.7380805 L18.6142805,8.7380805 L18.569424,9.09473684 C18.076003,9.13931889 17.5825819,9.22848297 17.0443044,9.31764706 C14.9360508,9.76346749 13.0072231,10.8780186 11.5269599,12.4383901 L11.2578212,12.2600619 L11.2129647,12.2600619 C11.1681083,12.2600619 11.1232518,12.304644 11.0335389,12.304644 C10.943826,12.304644 10.854113,12.2600619 10.7644001,12.2154799 C10.360692,11.9034056 9.95698385,11.5467492 9.64298864,11.1900929 L9.64298864,11.1900929 C9.59813218,11.1009288 9.50841926,11.0563467 9.4635628,11.0117647 C9.32899342,10.8780186 9.2392805,10.7442724 9.10471112,10.6105263 C9.05985467,10.5659443 9.01499821,10.5659443 8.97014175,10.5213622 C8.92528529,10.4767802 8.92528529,10.4767802 8.92528529,10.4767802 L8.92528529,10.4767802 C8.74585945,10.3430341 8.52157715,10.25387 8.29729486,10.25387 C8.0281561,10.25387 7.8038738,10.3430341 7.66930443,10.5659443 C7.40016567,10.9671827 7.48987859,11.5021672 7.84873026,11.8142415 L7.84873026,11.8142415 C7.89358672,11.8142415 7.89358672,11.8588235 7.89358672,11.8588235 C7.89358672,11.8588235 7.98329964,11.9479876 8.0281561,11.9479876 C8.16272548,12.0371517 8.34215132,12.1263158 8.52157715,12.2154799 C8.61129007,12.2600619 8.70100299,12.304644 8.79071591,12.349226 L8.79071591,12.349226 C9.2392805,12.6167183 9.6878451,12.8842105 10.0466968,13.2408669 C10.1364097,13.330031 10.2261226,13.5083591 10.1812661,13.6421053 L10.1812661,13.5975232 L10.1812661,13.5975232 L10.4504049,13.8650155 C10.4055484,13.9541796 10.360692,13.9987616 10.3158355,14.0879257 C8.92528529,16.2724458 8.34215132,18.8582043 8.74585945,21.3993808 L8.38700778,21.4885449 L8.38700778,21.4885449 C8.38700778,21.5331269 8.34215132,21.5331269 8.34215132,21.5331269 C8.29729486,21.6668731 8.16272548,21.7560372 8.0281561,21.8452012 C7.53473505,21.9789474 7.041314,22.0681115 6.50303648,22.1126935 L6.50303648,22.1126935 C6.41332356,22.1126935 6.32361065,22.1126935 6.23389773,22.1572755 C6.05447189,22.1572755 5.87504605,22.2018576 5.69562022,22.2018576 C5.65076376,22.2018576 5.6059073,22.2464396 5.51619438,22.2464396 C5.47133792,22.2464396 5.47133792,22.2464396 5.42648146,22.2910217 L5.42648146,22.2910217 C4.93306041,22.3801858 4.61906519,22.8260062 4.70877811,23.3164087 C4.70877811,23.3164087 4.70877811,23.3164087 4.70877811,23.3164087 C4.79849103,23.7176471 5.20219916,23.9851393 5.6059073,23.9405573 C5.69562022,23.9405573 5.74047667,23.9405573 5.83018959,23.8959752 L5.83018959,23.8959752 C5.87504605,23.8959752 5.87504605,23.8959752 5.87504605,23.8513932 C5.87504605,23.8068111 6.00961543,23.8513932 6.05447189,23.8513932 C6.23389773,23.8068111 6.41332356,23.7176471 6.54789294,23.673065 C6.63760586,23.628483 6.72731878,23.5839009 6.8170317,23.5839009 L6.86188816,23.5839009 C7.35530921,23.4055728 7.8038738,23.2718266 8.34215132,23.1826625 L8.38700778,23.1826625 C8.52157715,23.1826625 8.65614653,23.2272446 8.74585945,23.3164087 C8.79071591,23.3164087 8.79071591,23.3609907 8.79071591,23.3609907 L8.79071591,23.3609907 L9.19442404,23.3164087 C9.86727093,25.3671827 11.1232518,27.1950464 12.8726537,28.5325077 C13.2763618,28.844582 13.6352135,29.1120743 14.0837781,29.3349845 L13.8594958,29.6470588 L13.8594958,29.6470588 C13.8594958,29.6916409 13.9043523,29.6916409 13.9043523,29.6916409 C13.9940652,29.825387 13.9940652,30.0037152 13.9492087,30.1374613 C13.7697829,30.5832817 13.5006441,31.0291022 13.2315054,31.4303406 L13.2315054,31.4749226 C13.1866489,31.5640867 13.1417925,31.6086687 13.0520795,31.6978328 C12.9623666,31.7869969 12.8726537,31.9653251 12.7380843,32.1436533 C12.6932279,32.1882353 12.6932279,32.2328173 12.6483714,32.2773994 C12.6483714,32.2773994 12.6483714,32.3219814 12.603515,32.3219814 L12.603515,32.3219814 C12.3792327,32.7678019 12.5586585,33.3027864 12.9623666,33.5256966 C13.0520795,33.5702786 13.1866489,33.6148607 13.2763618,33.6148607 C13.6352135,33.6148607 13.9492087,33.3919505 14.1286346,33.0798762 L14.1286346,33.0798762 C14.1286346,33.0798762 14.1286346,33.0352941 14.173491,33.0352941 C14.173491,32.9907121 14.2183475,32.94613 14.2632039,32.901548 C14.3080604,32.7232198 14.3977733,32.5894737 14.4426298,32.4111455 L14.5323427,32.1436533 L14.5323427,32.1436533 C14.6669121,31.6532508 14.8911944,31.2074303 15.1154767,30.7616099 C15.2051896,30.6278638 15.339759,30.5386997 15.4743283,30.4941176 C15.5191848,30.4941176 15.5191848,30.4941176 15.5191848,30.4495356 L15.5191848,30.4495356 L15.6986106,30.0928793 C16.9545915,30.5832817 18.2554288,30.806192 19.6011226,30.806192 C20.4085389,30.806192 21.2159551,30.7170279 22.0233714,30.4941176 C22.5167925,30.4049536 23.0102135,30.2266254 23.4587781,30.0928793 L23.6382039,30.4049536 L23.6382039,30.4049536 C23.6830604,30.4049536 23.6830604,30.4049536 23.6830604,30.4495356 C23.8176298,30.4941176 23.9521992,30.5832817 24.0419121,30.7170279 C24.2661944,31.1628483 24.4904767,31.6086687 24.6250461,32.0990712 L24.6250461,32.1436533 L24.714759,32.4111455 C24.7596154,32.5894737 24.8044719,32.7678019 24.8941848,32.901548 C24.9390413,32.94613 24.9390413,32.9907121 24.9838977,33.0352941 C24.9838977,33.0352941 24.9838977,33.0798762 25.0287542,33.0798762 L25.0287542,33.0798762 C25.20818,33.3919505 25.5221752,33.6148607 25.8810269,33.6148607 C26.0155963,33.6148607 26.1053092,33.5702786 26.2398786,33.5256966 C26.4193044,33.4365325 26.5987303,33.2582043 26.6435867,33.0352941 C26.6884432,32.8123839 26.6884432,32.5894737 26.5987303,32.3665635 L26.5987303,32.3665635 C26.5987303,32.3219814 26.5538738,32.3219814 26.5538738,32.3219814 C26.5538738,32.2773994 26.5090173,32.2328173 26.4641609,32.1882353 C26.374448,32.0099071 26.284735,31.876161 26.1501657,31.7424149 C26.1053092,31.6532508 26.0604528,31.6086687 25.9707398,31.5195046 L25.9707398,31.4303406 C25.6567446,31.0291022 25.4324623,30.5832817 25.2530365,30.1374613 C25.20818,30.0037152 25.20818,29.825387 25.2978929,29.6916409 C25.2978929,29.6470588 25.3427494,29.6470588 25.3427494,29.6470588 L25.3427494,29.6470588 L25.20818,29.2904025 C27.4958594,27.9083591 29.2452614,25.7684211 30.0526776,23.2272446 L30.4115293,23.2718266 L30.4115293,23.2718266 C30.4563858,23.2718266 30.4563858,23.2272446 30.4563858,23.2272446 C30.5460987,23.1380805 30.6806681,23.0934985 30.8152374,23.0934985 L30.8600939,23.0934985 C31.353515,23.1826625 31.846936,23.3164087 32.2955006,23.4947368 L32.3403571,23.4947368 C32.43007,23.5393189 32.5197829,23.5839009 32.6094958,23.5839009 C32.7889217,23.673065 32.923491,23.7622291 33.1029169,23.8068111 C33.1477733,23.8068111 33.1926298,23.8513932 33.2823427,23.8513932 C33.3271992,23.8513932 33.3271992,23.8513932 33.3720556,23.8959752 L33.3720556,23.8959752 C33.4617685,23.9405573 33.506625,23.9405573 33.5963379,23.9405573 C34.0000461,23.9405573 34.3588977,23.673065 34.4934671,23.3164087 C34.4486106,22.8260062 34.089759,22.4693498 33.6860508,22.3801858 L33.6860508,22.3801858 Z M20.7225341,20.9981424 L19.5114097,21.577709 L18.3002853,20.9981424 L17.9862901,19.7052632 L18.8385628,18.6352941 L20.1842566,18.6352941 L21.0365293,19.7052632 L20.7225341,20.9981424 L20.7225341,20.9981424 Z M28.034137,18.1003096 C28.2584193,19.0365325 28.3032757,19.9727554 28.2135628,20.9089783 L23.9521992,19.7052632 L23.9521992,19.7052632 C23.548491,19.6160991 23.3242087,19.2148607 23.4139217,18.8136223 C23.4587781,18.6798762 23.5036346,18.5907121 23.5933475,18.501548 L26.9575819,15.469969 C27.451003,16.2724458 27.8098547,17.1640867 28.034137,18.1003096 L28.034137,18.1003096 Z M25.6118882,13.8204334 L21.9336585,16.406192 C21.6196633,16.5845201 21.1710987,16.5399381 20.9468164,16.2278638 C20.8571035,16.1386997 20.812247,16.0495356 20.812247,15.9157895 L20.5431083,11.4130031 C22.5167925,11.6359133 24.2661944,12.4829721 25.6118882,13.8204334 L25.6118882,13.8204334 L25.6118882,13.8204334 Z M17.492869,11.5467492 L18.3899982,11.3684211 L18.1657159,15.8266254 L18.1657159,15.8266254 C18.1657159,16.2278638 17.8068642,16.5399381 17.4031561,16.5399381 C17.2685867,16.5399381 17.1788738,16.495356 17.0443044,16.450774 L13.3212183,13.8204334 C14.4874862,12.7058824 15.9228929,11.9034056 17.492869,11.5467492 Z M12.020381,15.469969 L15.339759,18.4123839 L15.339759,18.4123839 C15.6537542,18.6798762 15.6986106,19.1256966 15.4294719,19.4377709 C15.339759,19.571517 15.2500461,19.6160991 15.0706202,19.6606811 L10.7195437,20.9089783 C10.5849743,19.0365325 11.0335389,17.1195046 12.020381,15.469969 L12.020381,15.469969 Z M11.2578212,23.0043344 L15.6986106,22.2464396 C16.0574623,22.2464396 16.416314,22.4693498 16.4611705,22.8260062 C16.5060269,22.9597523 16.5060269,23.1380805 16.416314,23.2718266 L16.416314,23.2718266 L14.7117685,27.3733746 C13.1417925,26.3479876 11.8858116,24.7876161 11.2578212,23.0043344 L11.2578212,23.0043344 Z M21.4402374,28.5325077 C20.812247,28.6662539 20.1842566,28.755418 19.5114097,28.755418 C18.569424,28.755418 17.5825819,28.5770898 16.6854528,28.3095975 L18.8834193,24.3417957 C19.1077016,24.0743034 19.4665532,23.9851393 19.7805484,24.1634675 C19.9151178,24.2526316 20.0048307,24.3417957 20.1394001,24.4755418 L20.1394001,24.4755418 L22.2925102,28.3541796 C22.0233714,28.3987616 21.7542327,28.4433437 21.4402374,28.5325077 L21.4402374,28.5325077 Z M26.9127255,24.65387 C26.2398786,25.723839 25.2978929,26.6600619 24.2213379,27.3287926 L22.471936,23.1380805 C22.3822231,22.7814241 22.5616489,22.4247678 22.8756441,22.2910217 C23.0102135,22.2464396 23.1447829,22.2018576 23.2793523,22.2018576 L27.7649982,22.9597523 C27.5407159,23.5839009 27.2715772,24.1634675 26.9127255,24.65387 Z"/>
      </g>
    </g>
    <g fill="#FFF" transform="translate(278 336)">
      <path d="M18.8685897,37.6715686 C29.2894241,37.6715686 37.7371795,29.2385007 37.7371795,18.8357843 C37.7371795,13.822806 35.7754484,9.26721788 32.5765312,5.89230511 C29.1371934,2.26374446 24.2677149,-1.77635684e-12 18.8685897,-1.77635684e-12 C8.44775538,-1.77635684e-12 8.52651283e-14,8.43306789 8.52651283e-14,18.8357843 C8.52651283e-14,29.2385007 8.44775538,37.6715686 18.8685897,37.6715686 Z" opacity=".087"/>
      <g filter="url(#hero-landing-page-n)" transform="translate(5.205 5.196)">
        <rect width="26.677" height="26.629" x=".325" y=".325" stroke="#E1E1E1" stroke-width=".65" opacity="0" rx="4.639"/>
        <path d="M3.41586538,13.8986954 C3.41586538,18.5329082 6.3521379,22.4645465 10.4238551,23.8514582 C10.9360016,23.9485507 11.1240262,23.6239248 11.1240262,23.3468898 C11.1240262,23.0967768 11.1145231,22.2705352 11.110111,21.3940974 C8.25919624,22.0285856 7.65761928,20.1565588 7.65761928,20.1565588 C7.19146078,18.9442053 6.51979884,18.6218373 6.51979884,18.6218373 C5.59002729,17.9708486 6.58988382,17.9842227 6.58988382,17.9842227 C7.6189283,18.0582145 8.1607718,19.0650932 8.1607718,19.0650932 C9.0747615,20.6685958 10.5580857,20.2050182 11.1428626,19.9370151 C11.2348385,19.2591045 11.5004148,18.7963954 11.7934821,18.5344714 C9.51733207,18.2692474 7.12460004,17.3698825 7.12460004,13.3508783 C7.12460004,12.2057427 7.52491599,11.2700767 8.18045669,10.5355432 C8.07405647,10.2713613 7.72329214,9.20455966 8.27972961,7.75980938 C8.27972961,7.75980938 9.14026466,7.47791112 11.0985716,8.83494815 C11.9160035,8.60255143 12.7926598,8.48600569 13.6635464,8.48201083 C14.534433,8.48600569 15.411768,8.60255143 16.2307273,8.83494815 C18.1866584,7.47791112 19.0460056,7.75980938 19.0460056,7.75980938 C19.6038006,9.20455966 19.2528666,10.2713613 19.1464664,10.5355432 C19.8035344,11.2700767 20.2011352,12.2057427 20.2011352,13.3508783 C20.2011352,17.3794354 17.8038213,18.2664683 15.5219016,18.5261343 C15.889466,18.8516287 16.2169818,19.489938 16.2169818,20.4685054 C16.2169818,21.8719175 16.205103,23.0014211 16.205103,23.3468898 C16.205103,23.626009 16.3895639,23.9530666 16.9090074,23.8500686 C20.9785185,22.4615938 23.9110577,18.531345 23.9110577,13.8986954 C23.9110577,8.10579911 19.3229516,3.40992647 13.6635464,3.40992647 C8.00465028,3.40992647 3.41586538,8.10579911 3.41586538,13.8986954 Z"/>
      </g>
    </g>
    <g transform="translate(0 242)">
      <ellipse cx="34.758" cy="34.697" fill="#FFF" opacity=".087" rx="34.758" ry="34.697"/>
      <g filter="url(#hero-landing-page-o)" transform="translate(9.588 9.572)">
        <rect width="49.142" height="49.054" x=".599" y=".599" fill="#FFF" stroke="#E1E1E1" stroke-width="1.197" opacity="0" rx="8.545"/>
        <g fill-rule="nonzero" transform="translate(6.292 10.05)">
          <path fill="#EA4335" d="M25.1083361,8.31618234 L28.3901582,5.05915021 L28.6088677,3.68772205 C22.6284979,-1.70914784 13.1219352,-1.09720108 7.7308864,4.96459924 C6.23339742,6.64822125 5.1224476,8.74722353 4.53002952,10.914724 L5.70542711,10.7503576 L12.268924,9.67619414 L12.7756575,9.16187199 C15.6952743,5.97963173 20.6317967,5.55151781 24.0028429,8.25910049 L25.1083361,8.31618234 Z"/>
          <path fill="#4285F4" d="M33.0652174,10.8189436 C32.3108687,8.06203636 30.762205,5.58365928 28.6088825,3.68780986 L24.0028577,8.25904194 C25.9477941,9.83625752 27.0557944,12.2123263 27.0083065,14.7044616 L27.0083065,15.5159021 C29.2722373,15.5159021 31.1077453,17.3373988 31.1077453,19.5842284 C31.1077453,21.8312044 29.2722373,23.6070356 27.0083065,23.6070356 L18.7980732,23.6070356 L17.9919599,24.475558 L17.9919599,29.3553248 L18.7980732,30.1209535 L27.0083065,30.1209535 C32.8970927,30.1664726 37.7081116,25.5113741 37.7539772,19.6670703 C37.781703,16.1246289 36.0218511,12.8036358 33.0652174,10.8189436"/>
          <path fill="#34A853" d="M10.5992842,30.1210267 L18.7980143,30.1210267 L18.7980143,23.6069624 L10.5992842,23.6069624 C10.0151249,23.6068161 9.44940027,23.4822605 8.91818545,23.2413458 L7.75502851,23.5955461 L4.45019982,26.8525782 L4.16232327,27.9611371 C6.01567603,29.3499825 8.27695223,30.1309794 10.5992842,30.1210267"/>
          <path fill="#FBBC05" d="M10.5992842,8.99046542 C4.71035055,9.02529999 -0.0348932334,13.7914886 0.000206468837,19.6357924 C0.0198210084,22.8994109 1.5556542,25.9715856 4.16232327,27.9611078 L8.91818545,23.2413166 C6.85482438,22.3161514 5.93795526,19.9062726 6.87016206,17.8586439 C7.80222139,15.8110153 10.2305899,14.901072 12.293656,15.8260908 C13.2028562,16.2337138 13.9309539,16.9564579 14.3416794,17.8586439 L19.0975415,13.1388527 C17.0739995,10.5135264 13.929774,8.97860996 10.5992842,8.99046542"/>
        </g>
      </g>
    </g>
    <g transform="translate(343 193)">
      <rect width="80" height="79.799" fill="#101214" fill-rule="nonzero" rx="39.9"/>
      <g fill-rule="nonzero" transform="translate(0 16.04)">
        <g fill="#101214">
          <rect width="36" height="25.1"/>
          <polygon points="25.636 25.1 25.636 30.875 20.4 25.1"/>
        </g>
        <path fill="#FFF" d="M16.2,10.9335752 C15.342,10.9335752 14.64,11.6257358 14.64,12.47171 C14.64,13.3176842 15.342,14.0098448 16.2,14.0098448 C17.058,14.0098448 17.76,13.3176842 17.76,12.47171 C17.76,11.6257358 17.058,10.9335752 16.2,10.9335752 L16.2,10.9335752 Z M20.88,12.47171 C20.88,9.92609684 18.7818,7.85730548 16.2,7.85730548 C13.6182,7.85730548 11.52,9.92609684 11.52,12.47171 C11.52,14.1790397 12.4638,15.6633398 13.86,16.4631699 L14.64,15.1249926 C13.7118,14.5866454 13.08,13.6099298 13.08,12.47171 C13.08,10.772071 14.4762,9.39544032 16.2,9.39544032 C17.9238,9.39544032 19.32,10.772071 19.32,12.47171 C19.32,13.6099298 18.6882,14.5866454 17.76,15.1249926 L18.54,16.4631699 C19.9362,15.6633398 20.88,14.1790397 20.88,12.47171 L20.88,12.47171 Z M16.2,4.7810358 C11.8944,4.7810358 8.4,8.22645784 8.4,12.47171 C8.4,15.3172595 9.9678,17.7936565 12.2922,19.1241432 L13.0722,17.7936565 C11.2158,16.7246528 9.96,14.7481496 9.96,12.47171 C9.96,9.072432 12.7524,6.31917064 16.2,6.31917064 C19.6476,6.31917064 22.44,9.072432 22.44,12.47171 C22.44,14.7481496 21.1842,16.7246528 19.32,17.7936565 L20.1,19.1241432 C22.4322,17.7936565 24,15.3172595 24,12.47171 C24,8.22645784 20.5056,4.7810358 16.2,4.7810358 L16.2,4.7810358 Z"/>
      </g>
      <g transform="matrix(-1 0 0 1 74 13.503)">
        <g transform="matrix(-1 0 0 1 54.112 0)">
          <path stroke="#02A483" stroke-width="1.536" d="M44.2774903 30.1324442L45.3891615 33.3057726M45.3891615 33.3057726L48.259 31.3435323"/>
          <path stroke="#F38C8C" stroke-width="1.536" d="M2.67270973,52.397563 L3.78315182,55.5711238" transform="rotate(-150 3.228 53.984)"/>
          <path stroke="#F38C8C" stroke-width="1.536" d="M0.371915156,53.4470543 L3.24185246,51.4835249" transform="rotate(-150 1.807 52.465)"/>
          <path stroke="#F38C8C" stroke-width="1.536" d="M2.81959644,52.5027708 C17.5150487,49.0601262 27.5877595,42.6318714 33.0377288,33.2180065"/>
          <path fill="url(#hero-landing-page-p)" d="M30.9963023,59.4452859 C58.0262238,59.4452859 53.429133,47.1723213 53.429133,32.0328521 C53.429133,16.8933829 50.0970142,0.299246343 31.4115814,0.299246343 C12.7261485,0.299246343 8.56347152,16.8933829 8.56347152,32.0328521 C8.56347152,47.1723213 3.96638071,59.4452859 30.9963023,59.4452859 Z"/>
          <use fill="#903D3D" xlink:href="#hero-landing-page-q"/>
          <use fill="#000" filter="url(#hero-landing-page-r)" xlink:href="#hero-landing-page-q"/>
          <g fill="#FFF" transform="translate(18.844 23.931)">
            <g transform="rotate(-90 7.939 -4.106)">
              <polygon points="0 1.902 .978 1.902 .978 .951 0 .951"/>
              <polygon points=".978 .951 1.957 .951 1.957 0 .978 0"/>
              <polygon points="1.957 1.902 2.935 1.902 2.935 .951 1.957 .951"/>
            </g>
            <g transform="rotate(-90 1.917 1.916)">
              <polygon points="0 1.902 .978 1.902 .978 .951 0 .951"/>
              <polygon points=".978 .951 1.957 .951 1.957 0 .978 0"/>
              <polygon points="1.957 1.902 2.935 1.902 2.935 .951 1.957 .951"/>
            </g>
            <polygon points="4.473 6.888 5.452 6.888 5.452 5.937 4.473 5.937"/>
            <polygon points="5.452 7.839 6.43 7.839 6.43 6.888 5.452 6.888"/>
            <polygon points="6.43 7.839 7.409 7.839 7.409 6.888 6.43 6.888"/>
            <polygon points="7.409 7.839 8.387 7.839 8.387 6.888 7.409 6.888"/>
            <polygon points="8.387 6.888 9.366 6.888 9.366 5.937 8.387 5.937"/>
          </g>
          <path stroke="#E18989" stroke-linecap="round" stroke-width="1.536" d="M17.4869228,59.4452859 C32.1823751,56.0026413 42.2550858,49.5743866 47.7050551,40.1605216"/>
          <path stroke="#F38C8C" stroke-width="1.536" d="M16.9984922,59.4013794 L18.1089342,62.5749402" transform="rotate(-150 17.554 60.988)"/>
          <path stroke="#F38C8C" stroke-width="1.536" d="M14.6976976,60.4508707 L17.5676349,58.4873413" transform="rotate(-150 16.133 59.47)"/>
        </g>
        <g transform="translate(18.703 40.16)">
          <rect width="38.598" height="26.227" fill="url(#hero-landing-page-s)" rx="2.304"/>
          <path fill="url(#hero-landing-page-t)" d="M19.6850959,17.7419832 C17.7665468,17.7419832 16.2112554,16.1878482 16.2112554,14.2707256 C16.2112554,12.353603 17.7665468,10.799468 19.6850959,10.799468 C21.603645,10.799468 23.1589363,12.353603 23.1589363,14.2707256 C23.1589363,16.1878482 21.603645,17.7419832 19.6850959,17.7419832 Z M20.1034088,9.99577084 C20.0821763,9.88120702 20.0710781,9.76308968 20.0710781,9.64238215 C20.0710781,8.57731403 20.9351289,7.71390572 22.0009895,7.71390572 C22.1217868,7.71390572 22.2399921,7.72499568 22.3546411,7.74621231 C22.3758735,7.86077614 22.3869718,7.97889347 22.3869718,8.099601 C22.3869718,9.16466913 21.522921,10.0280774 20.4570604,10.0280774 C20.3362631,10.0280774 20.2180578,10.0169875 20.1034088,9.99577084 Z"/>
        </g>
      </g>
    </g>
    <path stroke="#979797"/>
    <g fill="#FFF" transform="translate(180)">
      <path d="M18.8685897,37.6715686 C29.2894241,37.6715686 37.7371795,29.2385007 37.7371795,18.8357843 C37.7371795,13.822806 35.7754484,9.26721788 32.5765312,5.89230511 C29.1371934,2.26374446 24.2677149,0 18.8685897,0 C8.44775538,0 0,8.43306789 0,18.8357843 C0,29.2385007 8.44775538,37.6715686 18.8685897,37.6715686 Z" opacity=".087"/>
      <g filter="url(#hero-landing-page-u)" transform="translate(5.205 5.196)">
        <rect width="26.677" height="26.629" x=".325" y=".325" stroke="#E1E1E1" stroke-width=".65" opacity="0" rx="4.639"/>
        <path fill-rule="nonzero" d="M4.12857419,1.9825054 L4.04058443,2.07034219 L7.63204716,5.65556066 C7.12422138,6.4470569 6.8317308,7.41911755 6.8317308,8.52481614 C6.8317308,11.5986681 9.0922299,13.6397058 11.9555289,13.6397058 C13.0254631,13.6397058 14.0112279,13.3547144 14.8263314,12.8373367 L18.43611,16.4408393 C16.5657519,18.9069227 13.5937086,20.4595588 10.2475962,20.4595588 C4.5888961,20.4595588 0,16.0191601 0,10.2297794 C0,6.78688332 1.62290033,3.82106563 4.12857419,1.9825054 Z M5.83687818,0.970094268 C7.1728412,0.345754841 8.66856814,0 10.2475962,0 C15.9062962,0 20.4951923,4.44039875 20.4951923,10.2297794 C20.4951923,11.8221348 20.1480368,13.3124381 19.52695,14.6363642 L16.2790105,11.3940716 C16.7868363,10.6025755 17.079327,9.63051484 17.079327,8.52481614 C17.079327,5.45096415 14.8188278,3.40992647 11.9555289,3.40992647 C10.8855946,3.40992647 9.89982973,3.6949179 9.08472641,4.21229567 L5.83687818,0.970094268 Z M11.9555289,11.59375 C10.2375495,11.59375 8.88125003,10.3691273 8.88125003,8.52481614 C8.88125003,6.68050497 10.2375495,5.45588232 11.9555289,5.45588232 C13.6735082,5.45588232 15.0298077,6.68050497 15.0298077,8.52481614 C15.0298077,10.3691273 13.6735082,11.59375 11.9555289,11.59375 Z" transform="translate(3.416 3.41)"/>
      </g>
    </g>
    <g transform="translate(111 104)">
      <circle cx="95" cy="95" r="95" fill="url(#hero-landing-page-v)" opacity=".078"/>
      <path fill="#FFF" d="M0,23.3520294 L19.1590757,23.3520294 C19.1590757,39.3783287 32.0257913,52.3702112 47.8976893,52.3702112 C63.7695872,52.3702112 76.6363028,39.3783287 76.6363028,23.3520294 L95.7953785,23.3520294 C95.7953785,50.0625282 74.3508526,71.7156657 47.8976893,71.7156657 C21.4445259,71.7156657 0,50.0625282 0,23.3520294 Z M47.8976893,2.66453526e-15 L61.4452016,13.6793021 L47.8976893,27.3586042 L34.3501769,13.6793021 L47.8976893,2.66453526e-15 Z" transform="translate(48.167 69.747)"/>
    </g>
    <path stroke="#3F3F3F" stroke-dasharray="1" d="M66.3741686 261.622042L119.256778 237.980971M84.9013176 123.60199L122.27765 152.934979M199.03125 38L201.787029 103.687154M323.536437 90.695248L278.34429 136.296995M342.79251 233.288809L297.205128 224.57797M286.620994 338.689135L253.273262 282.02632M174.022784 344.606005L184.286872 291.772962"/>
  </g>
</svg>
